<mxfile host="65bd71144e">
    <diagram id="o4B9-1VpwrqbRtmQNT6S" name="Flowchart">
        <mxGraphModel dx="815" dy="478" grid="1" gridSize="10" guides="1" tooltips="1" connect="1" arrows="1" fold="1" page="1" pageScale="1" pageWidth="850" pageHeight="1100" math="0" shadow="0">
            <root>
                <mxCell id="0"/>
                <mxCell id="1" parent="0"/>
                <mxCell id="2" value="&lt;h1&gt;Flowchart&lt;/h1&gt;&lt;p&gt;&lt;font style=&quot;font-size: 14px&quot;&gt;Memberi gambaran jalannya program dari satu proses ke proses lainnya.&lt;/font&gt;&lt;/p&gt;" style="text;html=1;strokeColor=none;fillColor=none;spacing=5;spacingTop=-20;whiteSpace=wrap;overflow=hidden;rounded=0;" parent="1" vertex="1">
                    <mxGeometry x="10" y="10" width="190" height="120" as="geometry"/>
                </mxCell>
                <mxCell id="3" value="Start" style="strokeWidth=2;html=1;shape=mxgraph.flowchart.terminator;whiteSpace=wrap;" parent="1" vertex="1">
                    <mxGeometry x="80" y="200" width="100" height="60" as="geometry"/>
                </mxCell>
            </root>
        </mxGraphModel>
    </diagram>
    <diagram id="em67cn2OscIKrBlMMVTe" name="TEMP">
        <mxGraphModel dx="1358" dy="797" grid="1" gridSize="10" guides="1" tooltips="1" connect="1" arrows="1" fold="1" page="1" pageScale="1" pageWidth="850" pageHeight="1100" math="0" shadow="0">
            <root>
                <mxCell id="khRV6xAZj5hhKfZr4hbl-0"/>
                <mxCell id="khRV6xAZj5hhKfZr4hbl-1" parent="khRV6xAZj5hhKfZr4hbl-0"/>
                <mxCell id="khRV6xAZj5hhKfZr4hbl-2" value="Main Menu" style="swimlane;fontStyle=0;childLayout=stackLayout;horizontal=1;startSize=26;horizontalStack=0;resizeParent=1;resizeParentMax=0;resizeLast=0;collapsible=1;marginBottom=0;" vertex="1" parent="khRV6xAZj5hhKfZr4hbl-1">
                    <mxGeometry x="40" y="150" width="200" height="208" as="geometry">
                        <mxRectangle x="40" y="120" width="90" height="26" as="alternateBounds"/>
                    </mxGeometry>
                </mxCell>
                <mxCell id="khRV6xAZj5hhKfZr4hbl-3" value="1. Pemesanan Transportasi" style="text;strokeColor=none;fillColor=none;align=left;verticalAlign=top;spacingLeft=4;spacingRight=4;overflow=hidden;rotatable=0;points=[[0,0.5],[1,0.5]];portConstraint=eastwest;" vertex="1" parent="khRV6xAZj5hhKfZr4hbl-2">
                    <mxGeometry y="26" width="200" height="26" as="geometry"/>
                </mxCell>
                <mxCell id="khRV6xAZj5hhKfZr4hbl-4" value="2. Pemesanan Hotel" style="text;strokeColor=none;fillColor=none;align=left;verticalAlign=top;spacingLeft=4;spacingRight=4;overflow=hidden;rotatable=0;points=[[0,0.5],[1,0.5]];portConstraint=eastwest;" vertex="1" parent="khRV6xAZj5hhKfZr4hbl-2">
                    <mxGeometry y="52" width="200" height="26" as="geometry"/>
                </mxCell>
                <mxCell id="khRV6xAZj5hhKfZr4hbl-5" value="3. Pemesanan Tiket Wisata" style="text;strokeColor=none;fillColor=none;align=left;verticalAlign=top;spacingLeft=4;spacingRight=4;overflow=hidden;rotatable=0;points=[[0,0.5],[1,0.5]];portConstraint=eastwest;" vertex="1" parent="khRV6xAZj5hhKfZr4hbl-2">
                    <mxGeometry y="78" width="200" height="26" as="geometry"/>
                </mxCell>
                <mxCell id="khRV6xAZj5hhKfZr4hbl-6" value="4. Pemesanan Restoran" style="text;strokeColor=none;fillColor=none;align=left;verticalAlign=top;spacingLeft=4;spacingRight=4;overflow=hidden;rotatable=0;points=[[0,0.5],[1,0.5]];portConstraint=eastwest;" vertex="1" parent="khRV6xAZj5hhKfZr4hbl-2">
                    <mxGeometry y="104" width="200" height="26" as="geometry"/>
                </mxCell>
                <mxCell id="khRV6xAZj5hhKfZr4hbl-7" value="5. Login / Sign-Up" style="text;strokeColor=none;fillColor=none;align=left;verticalAlign=top;spacingLeft=4;spacingRight=4;overflow=hidden;rotatable=0;points=[[0,0.5],[1,0.5]];portConstraint=eastwest;" vertex="1" parent="khRV6xAZj5hhKfZr4hbl-2">
                    <mxGeometry y="130" width="200" height="26" as="geometry"/>
                </mxCell>
                <mxCell id="khRV6xAZj5hhKfZr4hbl-8" value="6. Join Membership" style="text;strokeColor=none;fillColor=none;align=left;verticalAlign=top;spacingLeft=4;spacingRight=4;overflow=hidden;rotatable=0;points=[[0,0.5],[1,0.5]];portConstraint=eastwest;" vertex="1" parent="khRV6xAZj5hhKfZr4hbl-2">
                    <mxGeometry y="156" width="200" height="26" as="geometry"/>
                </mxCell>
                <mxCell id="khRV6xAZj5hhKfZr4hbl-9" value="7. Keluar" style="text;strokeColor=none;fillColor=none;align=left;verticalAlign=top;spacingLeft=4;spacingRight=4;overflow=hidden;rotatable=0;points=[[0,0.5],[1,0.5]];portConstraint=eastwest;" vertex="1" parent="khRV6xAZj5hhKfZr4hbl-2">
                    <mxGeometry y="182" width="200" height="26" as="geometry"/>
                </mxCell>
                <mxCell id="khRV6xAZj5hhKfZr4hbl-10" value="" style="edgeStyle=orthogonalEdgeStyle;rounded=0;orthogonalLoop=1;jettySize=auto;html=1;startArrow=classicThin;startFill=1;endArrow=none;endFill=0;exitX=-0.007;exitY=0.135;exitDx=0;exitDy=0;exitPerimeter=0;" edge="1" parent="khRV6xAZj5hhKfZr4hbl-1" source="khRV6xAZj5hhKfZr4hbl-12">
                    <mxGeometry relative="1" as="geometry">
                        <mxPoint x="240" y="189" as="targetPoint"/>
                    </mxGeometry>
                </mxCell>
                <mxCell id="khRV6xAZj5hhKfZr4hbl-11" value="" style="rounded=0;orthogonalLoop=1;jettySize=auto;html=1;startArrow=none;startFill=0;endArrow=none;endFill=0;entryX=0.002;entryY=0.099;entryDx=0;entryDy=0;entryPerimeter=0;" edge="1" parent="khRV6xAZj5hhKfZr4hbl-1" target="khRV6xAZj5hhKfZr4hbl-18">
                    <mxGeometry relative="1" as="geometry">
                        <mxPoint x="480.9999999999998" y="128" as="sourcePoint"/>
                        <mxPoint x="558" y="128" as="targetPoint"/>
                    </mxGeometry>
                </mxCell>
                <mxCell id="khRV6xAZj5hhKfZr4hbl-12" value="Menu Jenis Transportasi" style="swimlane;fontStyle=0;childLayout=stackLayout;horizontal=1;startSize=26;horizontalStack=0;resizeParent=1;resizeParentMax=0;resizeLast=0;collapsible=1;marginBottom=0;" vertex="1" parent="khRV6xAZj5hhKfZr4hbl-1">
                    <mxGeometry x="320" y="110" width="160" height="130" as="geometry"/>
                </mxCell>
                <mxCell id="khRV6xAZj5hhKfZr4hbl-13" value="1. Pesawat" style="text;strokeColor=none;fillColor=none;align=left;verticalAlign=top;spacingLeft=4;spacingRight=4;overflow=hidden;rotatable=0;points=[[0,0.5],[1,0.5]];portConstraint=eastwest;" vertex="1" parent="khRV6xAZj5hhKfZr4hbl-12">
                    <mxGeometry y="26" width="160" height="26" as="geometry"/>
                </mxCell>
                <mxCell id="khRV6xAZj5hhKfZr4hbl-14" value="2. Kereta Api" style="text;strokeColor=none;fillColor=none;align=left;verticalAlign=top;spacingLeft=4;spacingRight=4;overflow=hidden;rotatable=0;points=[[0,0.5],[1,0.5]];portConstraint=eastwest;" vertex="1" parent="khRV6xAZj5hhKfZr4hbl-12">
                    <mxGeometry y="52" width="160" height="26" as="geometry"/>
                </mxCell>
                <mxCell id="khRV6xAZj5hhKfZr4hbl-15" value="3. Bus &amp; Travel" style="text;strokeColor=none;fillColor=none;align=left;verticalAlign=top;spacingLeft=4;spacingRight=4;overflow=hidden;rotatable=0;points=[[0,0.5],[1,0.5]];portConstraint=eastwest;" vertex="1" parent="khRV6xAZj5hhKfZr4hbl-12">
                    <mxGeometry y="78" width="160" height="26" as="geometry"/>
                </mxCell>
                <mxCell id="khRV6xAZj5hhKfZr4hbl-16" value="4. Kembali" style="text;strokeColor=none;fillColor=none;align=left;verticalAlign=top;spacingLeft=4;spacingRight=4;overflow=hidden;rotatable=0;points=[[0,0.5],[1,0.5]];portConstraint=eastwest;" vertex="1" parent="khRV6xAZj5hhKfZr4hbl-12">
                    <mxGeometry y="104" width="160" height="26" as="geometry"/>
                </mxCell>
                <mxCell id="khRV6xAZj5hhKfZr4hbl-17" value="" style="edgeStyle=none;rounded=0;orthogonalLoop=1;jettySize=auto;html=1;endArrow=none;endFill=0;" edge="1" parent="khRV6xAZj5hhKfZr4hbl-1" source="khRV6xAZj5hhKfZr4hbl-18" target="khRV6xAZj5hhKfZr4hbl-34">
                    <mxGeometry relative="1" as="geometry"/>
                </mxCell>
                <mxCell id="khRV6xAZj5hhKfZr4hbl-18" value="Input" style="swimlane;fontStyle=0;childLayout=stackLayout;horizontal=1;startSize=26;horizontalStack=0;resizeParent=1;resizeParentMax=0;resizeLast=0;collapsible=1;marginBottom=0;" vertex="1" parent="khRV6xAZj5hhKfZr4hbl-1">
                    <mxGeometry x="560" y="110" width="140" height="182" as="geometry"/>
                </mxCell>
                <mxCell id="khRV6xAZj5hhKfZr4hbl-19" value="Asal" style="text;strokeColor=none;fillColor=none;align=left;verticalAlign=top;spacingLeft=4;spacingRight=4;overflow=hidden;rotatable=0;points=[[0,0.5],[1,0.5]];portConstraint=eastwest;" vertex="1" parent="khRV6xAZj5hhKfZr4hbl-18">
                    <mxGeometry y="26" width="140" height="26" as="geometry"/>
                </mxCell>
                <mxCell id="khRV6xAZj5hhKfZr4hbl-20" value="Tujuan" style="text;strokeColor=none;fillColor=none;align=left;verticalAlign=top;spacingLeft=4;spacingRight=4;overflow=hidden;rotatable=0;points=[[0,0.5],[1,0.5]];portConstraint=eastwest;" vertex="1" parent="khRV6xAZj5hhKfZr4hbl-18">
                    <mxGeometry y="52" width="140" height="26" as="geometry"/>
                </mxCell>
                <mxCell id="khRV6xAZj5hhKfZr4hbl-21" value="Jumlah Penumpang" style="text;strokeColor=none;fillColor=none;align=left;verticalAlign=top;spacingLeft=4;spacingRight=4;overflow=hidden;rotatable=0;points=[[0,0.5],[1,0.5]];portConstraint=eastwest;" vertex="1" parent="khRV6xAZj5hhKfZr4hbl-18">
                    <mxGeometry y="78" width="140" height="26" as="geometry"/>
                </mxCell>
                <mxCell id="khRV6xAZj5hhKfZr4hbl-22" value="Tanggal Pergi" style="text;strokeColor=none;fillColor=none;align=left;verticalAlign=top;spacingLeft=4;spacingRight=4;overflow=hidden;rotatable=0;points=[[0,0.5],[1,0.5]];portConstraint=eastwest;" vertex="1" parent="khRV6xAZj5hhKfZr4hbl-18">
                    <mxGeometry y="104" width="140" height="26" as="geometry"/>
                </mxCell>
                <mxCell id="khRV6xAZj5hhKfZr4hbl-23" value="Tanggal Pulang" style="text;strokeColor=none;fillColor=none;align=left;verticalAlign=top;spacingLeft=4;spacingRight=4;overflow=hidden;rotatable=0;points=[[0,0.5],[1,0.5]];portConstraint=eastwest;" vertex="1" parent="khRV6xAZj5hhKfZr4hbl-18">
                    <mxGeometry y="130" width="140" height="26" as="geometry"/>
                </mxCell>
                <mxCell id="khRV6xAZj5hhKfZr4hbl-24" value="Kelas" style="text;strokeColor=none;fillColor=none;align=left;verticalAlign=top;spacingLeft=4;spacingRight=4;overflow=hidden;rotatable=0;points=[[0,0.5],[1,0.5]];portConstraint=eastwest;" vertex="1" parent="khRV6xAZj5hhKfZr4hbl-18">
                    <mxGeometry y="156" width="140" height="26" as="geometry"/>
                </mxCell>
                <mxCell id="khRV6xAZj5hhKfZr4hbl-25" style="edgeStyle=none;rounded=0;orthogonalLoop=1;jettySize=auto;html=1;entryX=0;entryY=0.5;entryDx=0;entryDy=0;endArrow=none;endFill=0;exitX=0.971;exitY=0.135;exitDx=0;exitDy=0;exitPerimeter=0;" edge="1" parent="khRV6xAZj5hhKfZr4hbl-1" source="khRV6xAZj5hhKfZr4hbl-26" target="khRV6xAZj5hhKfZr4hbl-56">
                    <mxGeometry relative="1" as="geometry"/>
                </mxCell>
                <mxCell id="khRV6xAZj5hhKfZr4hbl-26" value="Input" style="swimlane;fontStyle=0;childLayout=stackLayout;horizontal=1;startSize=26;horizontalStack=0;resizeParent=1;resizeParentMax=0;resizeLast=0;collapsible=1;marginBottom=0;" vertex="1" parent="khRV6xAZj5hhKfZr4hbl-1">
                    <mxGeometry x="320" y="550" width="140" height="156" as="geometry"/>
                </mxCell>
                <mxCell id="khRV6xAZj5hhKfZr4hbl-27" value="Tujuan" style="text;strokeColor=none;fillColor=none;align=left;verticalAlign=top;spacingLeft=4;spacingRight=4;overflow=hidden;rotatable=0;points=[[0,0.5],[1,0.5]];portConstraint=eastwest;" vertex="1" parent="khRV6xAZj5hhKfZr4hbl-26">
                    <mxGeometry y="26" width="140" height="26" as="geometry"/>
                </mxCell>
                <mxCell id="khRV6xAZj5hhKfZr4hbl-28" value="Tanggal Check-In" style="text;strokeColor=none;fillColor=none;align=left;verticalAlign=top;spacingLeft=4;spacingRight=4;overflow=hidden;rotatable=0;points=[[0,0.5],[1,0.5]];portConstraint=eastwest;" vertex="1" parent="khRV6xAZj5hhKfZr4hbl-26">
                    <mxGeometry y="52" width="140" height="26" as="geometry"/>
                </mxCell>
                <mxCell id="khRV6xAZj5hhKfZr4hbl-29" value="Durasi" style="text;strokeColor=none;fillColor=none;align=left;verticalAlign=top;spacingLeft=4;spacingRight=4;overflow=hidden;rotatable=0;points=[[0,0.5],[1,0.5]];portConstraint=eastwest;" vertex="1" parent="khRV6xAZj5hhKfZr4hbl-26">
                    <mxGeometry y="78" width="140" height="26" as="geometry"/>
                </mxCell>
                <mxCell id="khRV6xAZj5hhKfZr4hbl-30" value="Jumlah tamu" style="text;strokeColor=none;fillColor=none;align=left;verticalAlign=top;spacingLeft=4;spacingRight=4;overflow=hidden;rotatable=0;points=[[0,0.5],[1,0.5]];portConstraint=eastwest;" vertex="1" parent="khRV6xAZj5hhKfZr4hbl-26">
                    <mxGeometry y="104" width="140" height="26" as="geometry"/>
                </mxCell>
                <mxCell id="khRV6xAZj5hhKfZr4hbl-31" value="Jumlah Kamar" style="text;strokeColor=none;fillColor=none;align=left;verticalAlign=top;spacingLeft=4;spacingRight=4;overflow=hidden;rotatable=0;points=[[0,0.5],[1,0.5]];portConstraint=eastwest;" vertex="1" parent="khRV6xAZj5hhKfZr4hbl-26">
                    <mxGeometry y="130" width="140" height="26" as="geometry"/>
                </mxCell>
                <mxCell id="khRV6xAZj5hhKfZr4hbl-32" value="" style="edgeStyle=none;rounded=0;orthogonalLoop=1;jettySize=auto;html=1;endArrow=none;endFill=0;entryX=0.004;entryY=0.098;entryDx=0;entryDy=0;entryPerimeter=0;" edge="1" parent="khRV6xAZj5hhKfZr4hbl-1" source="khRV6xAZj5hhKfZr4hbl-34" target="khRV6xAZj5hhKfZr4hbl-41">
                    <mxGeometry relative="1" as="geometry">
                        <mxPoint x="959" y="200" as="targetPoint"/>
                    </mxGeometry>
                </mxCell>
                <mxCell id="khRV6xAZj5hhKfZr4hbl-33" value="" style="edgeStyle=none;rounded=0;orthogonalLoop=1;jettySize=auto;html=1;endArrow=none;endFill=0;" edge="1" parent="khRV6xAZj5hhKfZr4hbl-1" source="khRV6xAZj5hhKfZr4hbl-34" target="khRV6xAZj5hhKfZr4hbl-36">
                    <mxGeometry relative="1" as="geometry"/>
                </mxCell>
                <mxCell id="khRV6xAZj5hhKfZr4hbl-34" value="Search" style="rhombus;whiteSpace=wrap;html=1;fontStyle=0;startSize=26;" vertex="1" parent="khRV6xAZj5hhKfZr4hbl-1">
                    <mxGeometry x="800" y="161" width="80" height="80" as="geometry"/>
                </mxCell>
                <mxCell id="khRV6xAZj5hhKfZr4hbl-35" style="edgeStyle=orthogonalEdgeStyle;rounded=0;orthogonalLoop=1;jettySize=auto;html=1;exitX=0;exitY=0.5;exitDx=0;exitDy=0;entryX=0.5;entryY=0;entryDx=0;entryDy=0;endArrow=none;endFill=0;" edge="1" parent="khRV6xAZj5hhKfZr4hbl-1" source="khRV6xAZj5hhKfZr4hbl-36" target="khRV6xAZj5hhKfZr4hbl-12">
                    <mxGeometry relative="1" as="geometry"/>
                </mxCell>
                <mxCell id="khRV6xAZj5hhKfZr4hbl-36" value="&lt;b&gt;Note&lt;/b&gt;:&lt;br&gt;Transportasi tidak tersedia" style="whiteSpace=wrap;html=1;fontStyle=0;startSize=26;" vertex="1" parent="khRV6xAZj5hhKfZr4hbl-1">
                    <mxGeometry x="780" y="20" width="120" height="60" as="geometry"/>
                </mxCell>
                <mxCell id="khRV6xAZj5hhKfZr4hbl-37" value="False" style="text;html=1;strokeColor=none;fillColor=none;align=center;verticalAlign=middle;whiteSpace=wrap;rounded=0;" vertex="1" parent="khRV6xAZj5hhKfZr4hbl-1">
                    <mxGeometry x="840" y="120" width="40" height="20" as="geometry"/>
                </mxCell>
                <mxCell id="khRV6xAZj5hhKfZr4hbl-38" value="True" style="text;html=1;strokeColor=none;fillColor=none;align=center;verticalAlign=middle;whiteSpace=wrap;rounded=0;" vertex="1" parent="khRV6xAZj5hhKfZr4hbl-1">
                    <mxGeometry x="890" y="171" width="40" height="20" as="geometry"/>
                </mxCell>
                <mxCell id="khRV6xAZj5hhKfZr4hbl-39" value="Looping" style="text;html=1;strokeColor=none;fillColor=none;align=center;verticalAlign=middle;whiteSpace=wrap;rounded=0;" vertex="1" parent="khRV6xAZj5hhKfZr4hbl-1">
                    <mxGeometry x="570" y="20" width="40" height="20" as="geometry"/>
                </mxCell>
                <mxCell id="khRV6xAZj5hhKfZr4hbl-40" value="" style="edgeStyle=none;rounded=0;orthogonalLoop=1;jettySize=auto;html=1;endArrow=none;endFill=0;exitX=1.01;exitY=0.1;exitDx=0;exitDy=0;exitPerimeter=0;" edge="1" parent="khRV6xAZj5hhKfZr4hbl-1" source="khRV6xAZj5hhKfZr4hbl-41" target="khRV6xAZj5hhKfZr4hbl-47">
                    <mxGeometry relative="1" as="geometry"/>
                </mxCell>
                <mxCell id="khRV6xAZj5hhKfZr4hbl-41" value="Input Pilihan" style="swimlane;fontStyle=0;childLayout=stackLayout;horizontal=1;startSize=26;horizontalStack=0;resizeParent=1;resizeParentMax=0;resizeLast=0;collapsible=1;marginBottom=0;" vertex="1" parent="khRV6xAZj5hhKfZr4hbl-1">
                    <mxGeometry x="960" y="191" width="140" height="104" as="geometry"/>
                </mxCell>
                <mxCell id="khRV6xAZj5hhKfZr4hbl-42" value="1. AAA" style="text;strokeColor=none;fillColor=none;align=left;verticalAlign=top;spacingLeft=4;spacingRight=4;overflow=hidden;rotatable=0;points=[[0,0.5],[1,0.5]];portConstraint=eastwest;" vertex="1" parent="khRV6xAZj5hhKfZr4hbl-41">
                    <mxGeometry y="26" width="140" height="26" as="geometry"/>
                </mxCell>
                <mxCell id="khRV6xAZj5hhKfZr4hbl-43" value="2. BBB" style="text;strokeColor=none;fillColor=none;align=left;verticalAlign=top;spacingLeft=4;spacingRight=4;overflow=hidden;rotatable=0;points=[[0,0.5],[1,0.5]];portConstraint=eastwest;" vertex="1" parent="khRV6xAZj5hhKfZr4hbl-41">
                    <mxGeometry y="52" width="140" height="26" as="geometry"/>
                </mxCell>
                <mxCell id="khRV6xAZj5hhKfZr4hbl-44" value="3. CCC" style="text;strokeColor=none;fillColor=none;align=left;verticalAlign=top;spacingLeft=4;spacingRight=4;overflow=hidden;rotatable=0;points=[[0,0.5],[1,0.5]];portConstraint=eastwest;" vertex="1" parent="khRV6xAZj5hhKfZr4hbl-41">
                    <mxGeometry y="78" width="140" height="26" as="geometry"/>
                </mxCell>
                <mxCell id="khRV6xAZj5hhKfZr4hbl-45" value="" style="edgeStyle=none;rounded=0;orthogonalLoop=1;jettySize=auto;html=1;endArrow=none;endFill=0;" edge="1" parent="khRV6xAZj5hhKfZr4hbl-1" source="khRV6xAZj5hhKfZr4hbl-47" target="khRV6xAZj5hhKfZr4hbl-49">
                    <mxGeometry relative="1" as="geometry"/>
                </mxCell>
                <mxCell id="khRV6xAZj5hhKfZr4hbl-46" value="To Login Menu" style="edgeStyle=none;rounded=0;orthogonalLoop=1;jettySize=auto;html=1;endArrow=none;endFill=0;" edge="1" parent="khRV6xAZj5hhKfZr4hbl-1" source="khRV6xAZj5hhKfZr4hbl-47" target="khRV6xAZj5hhKfZr4hbl-51">
                    <mxGeometry relative="1" as="geometry"/>
                </mxCell>
                <mxCell id="khRV6xAZj5hhKfZr4hbl-47" value="Check&lt;br&gt;Login&lt;br&gt;Status" style="rhombus;whiteSpace=wrap;html=1;fontStyle=0;startSize=26;" vertex="1" parent="khRV6xAZj5hhKfZr4hbl-1">
                    <mxGeometry x="1170" y="161" width="80" height="80" as="geometry"/>
                </mxCell>
                <mxCell id="khRV6xAZj5hhKfZr4hbl-48" value="Back to Main Menu" style="edgeStyle=none;rounded=0;orthogonalLoop=1;jettySize=auto;html=1;endArrow=none;endFill=0;" edge="1" parent="khRV6xAZj5hhKfZr4hbl-1" source="khRV6xAZj5hhKfZr4hbl-49" target="khRV6xAZj5hhKfZr4hbl-50">
                    <mxGeometry relative="1" as="geometry"/>
                </mxCell>
                <mxCell id="khRV6xAZj5hhKfZr4hbl-49" value="Konfirmasi&lt;br&gt;Pembayaran" style="whiteSpace=wrap;html=1;fontStyle=0;startSize=26;" vertex="1" parent="khRV6xAZj5hhKfZr4hbl-1">
                    <mxGeometry x="1320" y="171" width="120" height="60" as="geometry"/>
                </mxCell>
                <mxCell id="khRV6xAZj5hhKfZr4hbl-50" value="" style="shape=waypoint;size=6;pointerEvents=1;points=[];fillColor=#2a2a2a;resizable=0;rotatable=0;perimeter=centerPerimeter;snapToPoint=1;fontStyle=0;startSize=26;" vertex="1" parent="khRV6xAZj5hhKfZr4hbl-1">
                    <mxGeometry x="1550" y="181" width="40" height="40" as="geometry"/>
                </mxCell>
                <mxCell id="khRV6xAZj5hhKfZr4hbl-51" value="" style="shape=waypoint;size=6;pointerEvents=1;points=[];fillColor=#2a2a2a;resizable=0;rotatable=0;perimeter=centerPerimeter;snapToPoint=1;fontStyle=0;startSize=26;" vertex="1" parent="khRV6xAZj5hhKfZr4hbl-1">
                    <mxGeometry x="1190" y="21" width="40" height="40" as="geometry"/>
                </mxCell>
                <mxCell id="khRV6xAZj5hhKfZr4hbl-52" value="True" style="text;html=1;strokeColor=none;fillColor=none;align=center;verticalAlign=middle;whiteSpace=wrap;rounded=0;" vertex="1" parent="khRV6xAZj5hhKfZr4hbl-1">
                    <mxGeometry x="1260" y="181" width="40" height="20" as="geometry"/>
                </mxCell>
                <mxCell id="khRV6xAZj5hhKfZr4hbl-53" value="False" style="text;html=1;strokeColor=none;fillColor=none;align=center;verticalAlign=middle;whiteSpace=wrap;rounded=0;" vertex="1" parent="khRV6xAZj5hhKfZr4hbl-1">
                    <mxGeometry x="1210" y="130" width="40" height="20" as="geometry"/>
                </mxCell>
                <mxCell id="khRV6xAZj5hhKfZr4hbl-54" value="" style="edgeStyle=none;rounded=0;orthogonalLoop=1;jettySize=auto;html=1;endArrow=none;endFill=0;entryX=0.004;entryY=0.098;entryDx=0;entryDy=0;entryPerimeter=0;" edge="1" parent="khRV6xAZj5hhKfZr4hbl-1" source="khRV6xAZj5hhKfZr4hbl-56" target="khRV6xAZj5hhKfZr4hbl-62">
                    <mxGeometry relative="1" as="geometry">
                        <mxPoint x="739" y="570" as="targetPoint"/>
                    </mxGeometry>
                </mxCell>
                <mxCell id="khRV6xAZj5hhKfZr4hbl-55" value="" style="edgeStyle=none;rounded=0;orthogonalLoop=1;jettySize=auto;html=1;endArrow=none;endFill=0;" edge="1" parent="khRV6xAZj5hhKfZr4hbl-1" source="khRV6xAZj5hhKfZr4hbl-56" target="khRV6xAZj5hhKfZr4hbl-58">
                    <mxGeometry relative="1" as="geometry"/>
                </mxCell>
                <mxCell id="khRV6xAZj5hhKfZr4hbl-56" value="Search" style="rhombus;whiteSpace=wrap;html=1;fontStyle=0;startSize=26;" vertex="1" parent="khRV6xAZj5hhKfZr4hbl-1">
                    <mxGeometry x="580" y="531" width="80" height="80" as="geometry"/>
                </mxCell>
                <mxCell id="khRV6xAZj5hhKfZr4hbl-57" value="To Main Menu" style="edgeStyle=none;rounded=0;orthogonalLoop=1;jettySize=auto;html=1;endArrow=none;endFill=0;" edge="1" parent="khRV6xAZj5hhKfZr4hbl-1" source="khRV6xAZj5hhKfZr4hbl-58" target="khRV6xAZj5hhKfZr4hbl-75">
                    <mxGeometry relative="1" as="geometry"/>
                </mxCell>
                <mxCell id="khRV6xAZj5hhKfZr4hbl-58" value="&lt;b&gt;Note&lt;/b&gt;:&lt;br&gt;Tidak tersedia" style="whiteSpace=wrap;html=1;fontStyle=0;startSize=26;" vertex="1" parent="khRV6xAZj5hhKfZr4hbl-1">
                    <mxGeometry x="560" y="390" width="120" height="60" as="geometry"/>
                </mxCell>
                <mxCell id="khRV6xAZj5hhKfZr4hbl-59" value="False" style="text;html=1;strokeColor=none;fillColor=none;align=center;verticalAlign=middle;whiteSpace=wrap;rounded=0;" vertex="1" parent="khRV6xAZj5hhKfZr4hbl-1">
                    <mxGeometry x="620" y="490" width="40" height="20" as="geometry"/>
                </mxCell>
                <mxCell id="khRV6xAZj5hhKfZr4hbl-60" value="True" style="text;html=1;strokeColor=none;fillColor=none;align=center;verticalAlign=middle;whiteSpace=wrap;rounded=0;" vertex="1" parent="khRV6xAZj5hhKfZr4hbl-1">
                    <mxGeometry x="670" y="541" width="40" height="20" as="geometry"/>
                </mxCell>
                <mxCell id="khRV6xAZj5hhKfZr4hbl-61" value="" style="edgeStyle=none;rounded=0;orthogonalLoop=1;jettySize=auto;html=1;endArrow=none;endFill=0;exitX=1.01;exitY=0.1;exitDx=0;exitDy=0;exitPerimeter=0;" edge="1" parent="khRV6xAZj5hhKfZr4hbl-1" source="khRV6xAZj5hhKfZr4hbl-62" target="khRV6xAZj5hhKfZr4hbl-68">
                    <mxGeometry relative="1" as="geometry"/>
                </mxCell>
                <mxCell id="khRV6xAZj5hhKfZr4hbl-62" value="Input Pilihan" style="swimlane;fontStyle=0;childLayout=stackLayout;horizontal=1;startSize=26;horizontalStack=0;resizeParent=1;resizeParentMax=0;resizeLast=0;collapsible=1;marginBottom=0;" vertex="1" parent="khRV6xAZj5hhKfZr4hbl-1">
                    <mxGeometry x="740" y="561" width="140" height="104" as="geometry"/>
                </mxCell>
                <mxCell id="khRV6xAZj5hhKfZr4hbl-63" value="1. AAA" style="text;strokeColor=none;fillColor=none;align=left;verticalAlign=top;spacingLeft=4;spacingRight=4;overflow=hidden;rotatable=0;points=[[0,0.5],[1,0.5]];portConstraint=eastwest;" vertex="1" parent="khRV6xAZj5hhKfZr4hbl-62">
                    <mxGeometry y="26" width="140" height="26" as="geometry"/>
                </mxCell>
                <mxCell id="khRV6xAZj5hhKfZr4hbl-64" value="2. BBB" style="text;strokeColor=none;fillColor=none;align=left;verticalAlign=top;spacingLeft=4;spacingRight=4;overflow=hidden;rotatable=0;points=[[0,0.5],[1,0.5]];portConstraint=eastwest;" vertex="1" parent="khRV6xAZj5hhKfZr4hbl-62">
                    <mxGeometry y="52" width="140" height="26" as="geometry"/>
                </mxCell>
                <mxCell id="khRV6xAZj5hhKfZr4hbl-65" value="3. CCC" style="text;strokeColor=none;fillColor=none;align=left;verticalAlign=top;spacingLeft=4;spacingRight=4;overflow=hidden;rotatable=0;points=[[0,0.5],[1,0.5]];portConstraint=eastwest;" vertex="1" parent="khRV6xAZj5hhKfZr4hbl-62">
                    <mxGeometry y="78" width="140" height="26" as="geometry"/>
                </mxCell>
                <mxCell id="khRV6xAZj5hhKfZr4hbl-66" value="" style="edgeStyle=none;rounded=0;orthogonalLoop=1;jettySize=auto;html=1;endArrow=none;endFill=0;" edge="1" parent="khRV6xAZj5hhKfZr4hbl-1" source="khRV6xAZj5hhKfZr4hbl-68" target="khRV6xAZj5hhKfZr4hbl-70">
                    <mxGeometry relative="1" as="geometry"/>
                </mxCell>
                <mxCell id="khRV6xAZj5hhKfZr4hbl-67" value="To Login Menu" style="edgeStyle=none;rounded=0;orthogonalLoop=1;jettySize=auto;html=1;endArrow=none;endFill=0;" edge="1" parent="khRV6xAZj5hhKfZr4hbl-1" source="khRV6xAZj5hhKfZr4hbl-68" target="khRV6xAZj5hhKfZr4hbl-72">
                    <mxGeometry relative="1" as="geometry"/>
                </mxCell>
                <mxCell id="khRV6xAZj5hhKfZr4hbl-68" value="Check&lt;br&gt;Login&lt;br&gt;Status" style="rhombus;whiteSpace=wrap;html=1;fontStyle=0;startSize=26;" vertex="1" parent="khRV6xAZj5hhKfZr4hbl-1">
                    <mxGeometry x="950" y="531" width="80" height="80" as="geometry"/>
                </mxCell>
                <mxCell id="khRV6xAZj5hhKfZr4hbl-69" value="Back to Main Menu" style="edgeStyle=none;rounded=0;orthogonalLoop=1;jettySize=auto;html=1;endArrow=none;endFill=0;" edge="1" parent="khRV6xAZj5hhKfZr4hbl-1" source="khRV6xAZj5hhKfZr4hbl-70" target="khRV6xAZj5hhKfZr4hbl-71">
                    <mxGeometry relative="1" as="geometry"/>
                </mxCell>
                <mxCell id="khRV6xAZj5hhKfZr4hbl-70" value="Konfirmasi&lt;br&gt;Pembayaran" style="whiteSpace=wrap;html=1;fontStyle=0;startSize=26;" vertex="1" parent="khRV6xAZj5hhKfZr4hbl-1">
                    <mxGeometry x="1100" y="541" width="120" height="60" as="geometry"/>
                </mxCell>
                <mxCell id="khRV6xAZj5hhKfZr4hbl-71" value="" style="shape=waypoint;size=6;pointerEvents=1;points=[];fillColor=#2a2a2a;resizable=0;rotatable=0;perimeter=centerPerimeter;snapToPoint=1;fontStyle=0;startSize=26;" vertex="1" parent="khRV6xAZj5hhKfZr4hbl-1">
                    <mxGeometry x="1330" y="551" width="40" height="40" as="geometry"/>
                </mxCell>
                <mxCell id="khRV6xAZj5hhKfZr4hbl-72" value="" style="shape=waypoint;size=6;pointerEvents=1;points=[];fillColor=#2a2a2a;resizable=0;rotatable=0;perimeter=centerPerimeter;snapToPoint=1;fontStyle=0;startSize=26;" vertex="1" parent="khRV6xAZj5hhKfZr4hbl-1">
                    <mxGeometry x="970" y="391" width="40" height="40" as="geometry"/>
                </mxCell>
                <mxCell id="khRV6xAZj5hhKfZr4hbl-73" value="True" style="text;html=1;strokeColor=none;fillColor=none;align=center;verticalAlign=middle;whiteSpace=wrap;rounded=0;" vertex="1" parent="khRV6xAZj5hhKfZr4hbl-1">
                    <mxGeometry x="1040" y="551" width="40" height="20" as="geometry"/>
                </mxCell>
                <mxCell id="khRV6xAZj5hhKfZr4hbl-74" value="False" style="text;html=1;strokeColor=none;fillColor=none;align=center;verticalAlign=middle;whiteSpace=wrap;rounded=0;" vertex="1" parent="khRV6xAZj5hhKfZr4hbl-1">
                    <mxGeometry x="990" y="500" width="40" height="20" as="geometry"/>
                </mxCell>
                <mxCell id="khRV6xAZj5hhKfZr4hbl-75" value="" style="shape=waypoint;size=6;pointerEvents=1;points=[];fillColor=#2a2a2a;resizable=0;rotatable=0;perimeter=centerPerimeter;snapToPoint=1;fontStyle=0;startSize=26;" vertex="1" parent="khRV6xAZj5hhKfZr4hbl-1">
                    <mxGeometry x="400" y="400" width="40" height="40" as="geometry"/>
                </mxCell>
                <mxCell id="khRV6xAZj5hhKfZr4hbl-76" style="edgeStyle=orthogonalEdgeStyle;rounded=0;orthogonalLoop=1;jettySize=auto;html=1;endArrow=none;endFill=0;" edge="1" parent="khRV6xAZj5hhKfZr4hbl-1" source="khRV6xAZj5hhKfZr4hbl-4" target="khRV6xAZj5hhKfZr4hbl-26">
                    <mxGeometry relative="1" as="geometry">
                        <Array as="points">
                            <mxPoint x="290" y="215"/>
                            <mxPoint x="290" y="628"/>
                        </Array>
                    </mxGeometry>
                </mxCell>
                <mxCell id="khRV6xAZj5hhKfZr4hbl-77" value="" style="rounded=0;orthogonalLoop=1;jettySize=auto;html=1;startArrow=none;startFill=0;endArrow=none;endFill=0;entryX=0;entryY=0.25;entryDx=0;entryDy=0;" edge="1" parent="khRV6xAZj5hhKfZr4hbl-1" target="khRV6xAZj5hhKfZr4hbl-86">
                    <mxGeometry relative="1" as="geometry">
                        <mxPoint x="480.9999999999998" y="893" as="sourcePoint"/>
                        <mxPoint x="558" y="898" as="targetPoint"/>
                    </mxGeometry>
                </mxCell>
                <mxCell id="khRV6xAZj5hhKfZr4hbl-78" value="Menu Jenis Wisata" style="swimlane;fontStyle=0;childLayout=stackLayout;horizontal=1;startSize=26;horizontalStack=0;resizeParent=1;resizeParentMax=0;resizeLast=0;collapsible=1;marginBottom=0;" vertex="1" parent="khRV6xAZj5hhKfZr4hbl-1">
                    <mxGeometry x="320" y="880" width="160" height="182" as="geometry"/>
                </mxCell>
                <mxCell id="khRV6xAZj5hhKfZr4hbl-79" value="1. Taman Hiburan" style="text;strokeColor=none;fillColor=none;align=left;verticalAlign=top;spacingLeft=4;spacingRight=4;overflow=hidden;rotatable=0;points=[[0,0.5],[1,0.5]];portConstraint=eastwest;" vertex="1" parent="khRV6xAZj5hhKfZr4hbl-78">
                    <mxGeometry y="26" width="160" height="26" as="geometry"/>
                </mxCell>
                <mxCell id="khRV6xAZj5hhKfZr4hbl-80" value="2. Beauty &amp; Spa" style="text;strokeColor=none;fillColor=none;align=left;verticalAlign=top;spacingLeft=4;spacingRight=4;overflow=hidden;rotatable=0;points=[[0,0.5],[1,0.5]];portConstraint=eastwest;" vertex="1" parent="khRV6xAZj5hhKfZr4hbl-78">
                    <mxGeometry y="52" width="160" height="26" as="geometry"/>
                </mxCell>
                <mxCell id="khRV6xAZj5hhKfZr4hbl-81" value="3. Atraksi" style="text;strokeColor=none;fillColor=none;align=left;verticalAlign=top;spacingLeft=4;spacingRight=4;overflow=hidden;rotatable=0;points=[[0,0.5],[1,0.5]];portConstraint=eastwest;" vertex="1" parent="khRV6xAZj5hhKfZr4hbl-78">
                    <mxGeometry y="78" width="160" height="26" as="geometry"/>
                </mxCell>
                <mxCell id="khRV6xAZj5hhKfZr4hbl-82" value="4. Tour" style="text;strokeColor=none;fillColor=none;align=left;verticalAlign=top;spacingLeft=4;spacingRight=4;overflow=hidden;rotatable=0;points=[[0,0.5],[1,0.5]];portConstraint=eastwest;" vertex="1" parent="khRV6xAZj5hhKfZr4hbl-78">
                    <mxGeometry y="104" width="160" height="26" as="geometry"/>
                </mxCell>
                <mxCell id="khRV6xAZj5hhKfZr4hbl-83" value="5. Concert" style="text;strokeColor=none;fillColor=none;align=left;verticalAlign=top;spacingLeft=4;spacingRight=4;overflow=hidden;rotatable=0;points=[[0,0.5],[1,0.5]];portConstraint=eastwest;" vertex="1" parent="khRV6xAZj5hhKfZr4hbl-78">
                    <mxGeometry y="130" width="160" height="26" as="geometry"/>
                </mxCell>
                <mxCell id="khRV6xAZj5hhKfZr4hbl-84" value="6. Event Lainnya" style="text;strokeColor=none;fillColor=none;align=left;verticalAlign=top;spacingLeft=4;spacingRight=4;overflow=hidden;rotatable=0;points=[[0,0.5],[1,0.5]];portConstraint=eastwest;" vertex="1" parent="khRV6xAZj5hhKfZr4hbl-78">
                    <mxGeometry y="156" width="160" height="26" as="geometry"/>
                </mxCell>
                <mxCell id="khRV6xAZj5hhKfZr4hbl-85" value="" style="edgeStyle=none;rounded=0;orthogonalLoop=1;jettySize=auto;html=1;endArrow=none;endFill=0;exitX=1.018;exitY=0.391;exitDx=0;exitDy=0;exitPerimeter=0;" edge="1" parent="khRV6xAZj5hhKfZr4hbl-1" source="khRV6xAZj5hhKfZr4hbl-86" target="khRV6xAZj5hhKfZr4hbl-90">
                    <mxGeometry relative="1" as="geometry"/>
                </mxCell>
                <mxCell id="khRV6xAZj5hhKfZr4hbl-86" value="Input" style="swimlane;fontStyle=0;childLayout=stackLayout;horizontal=1;startSize=26;horizontalStack=0;resizeParent=1;resizeParentMax=0;resizeLast=0;collapsible=1;marginBottom=0;" vertex="1" parent="khRV6xAZj5hhKfZr4hbl-1">
                    <mxGeometry x="560" y="880" width="140" height="52" as="geometry"/>
                </mxCell>
                <mxCell id="khRV6xAZj5hhKfZr4hbl-87" value="Kota" style="text;strokeColor=none;fillColor=none;align=left;verticalAlign=top;spacingLeft=4;spacingRight=4;overflow=hidden;rotatable=0;points=[[0,0.5],[1,0.5]];portConstraint=eastwest;" vertex="1" parent="khRV6xAZj5hhKfZr4hbl-86">
                    <mxGeometry y="26" width="140" height="26" as="geometry"/>
                </mxCell>
                <mxCell id="khRV6xAZj5hhKfZr4hbl-88" value="" style="edgeStyle=none;rounded=0;orthogonalLoop=1;jettySize=auto;html=1;endArrow=none;endFill=0;entryX=0.004;entryY=0.098;entryDx=0;entryDy=0;entryPerimeter=0;" edge="1" parent="khRV6xAZj5hhKfZr4hbl-1" source="khRV6xAZj5hhKfZr4hbl-90" target="khRV6xAZj5hhKfZr4hbl-97">
                    <mxGeometry relative="1" as="geometry">
                        <mxPoint x="959" y="970" as="targetPoint"/>
                    </mxGeometry>
                </mxCell>
                <mxCell id="khRV6xAZj5hhKfZr4hbl-89" value="" style="edgeStyle=none;rounded=0;orthogonalLoop=1;jettySize=auto;html=1;endArrow=none;endFill=0;" edge="1" parent="khRV6xAZj5hhKfZr4hbl-1" source="khRV6xAZj5hhKfZr4hbl-90" target="khRV6xAZj5hhKfZr4hbl-92">
                    <mxGeometry relative="1" as="geometry"/>
                </mxCell>
                <mxCell id="khRV6xAZj5hhKfZr4hbl-90" value="Search" style="rhombus;whiteSpace=wrap;html=1;fontStyle=0;startSize=26;" vertex="1" parent="khRV6xAZj5hhKfZr4hbl-1">
                    <mxGeometry x="800" y="860" width="80" height="80" as="geometry"/>
                </mxCell>
                <mxCell id="khRV6xAZj5hhKfZr4hbl-91" style="edgeStyle=orthogonalEdgeStyle;rounded=0;orthogonalLoop=1;jettySize=auto;html=1;exitX=0;exitY=0.5;exitDx=0;exitDy=0;entryX=0.5;entryY=0;entryDx=0;entryDy=0;endArrow=none;endFill=0;" edge="1" parent="khRV6xAZj5hhKfZr4hbl-1" source="khRV6xAZj5hhKfZr4hbl-92" target="khRV6xAZj5hhKfZr4hbl-78">
                    <mxGeometry relative="1" as="geometry"/>
                </mxCell>
                <mxCell id="khRV6xAZj5hhKfZr4hbl-92" value="&lt;b&gt;Note&lt;/b&gt;:&lt;br&gt;Tidak tersedia" style="whiteSpace=wrap;html=1;fontStyle=0;startSize=26;" vertex="1" parent="khRV6xAZj5hhKfZr4hbl-1">
                    <mxGeometry x="780" y="760" width="120" height="60" as="geometry"/>
                </mxCell>
                <mxCell id="khRV6xAZj5hhKfZr4hbl-93" value="False" style="text;html=1;strokeColor=none;fillColor=none;align=center;verticalAlign=middle;whiteSpace=wrap;rounded=0;" vertex="1" parent="khRV6xAZj5hhKfZr4hbl-1">
                    <mxGeometry x="840" y="829" width="40" height="20" as="geometry"/>
                </mxCell>
                <mxCell id="khRV6xAZj5hhKfZr4hbl-94" value="True" style="text;html=1;strokeColor=none;fillColor=none;align=center;verticalAlign=middle;whiteSpace=wrap;rounded=0;" vertex="1" parent="khRV6xAZj5hhKfZr4hbl-1">
                    <mxGeometry x="890" y="870" width="40" height="20" as="geometry"/>
                </mxCell>
                <mxCell id="khRV6xAZj5hhKfZr4hbl-95" value="Looping" style="text;html=1;strokeColor=none;fillColor=none;align=center;verticalAlign=middle;whiteSpace=wrap;rounded=0;" vertex="1" parent="khRV6xAZj5hhKfZr4hbl-1">
                    <mxGeometry x="570" y="760" width="40" height="20" as="geometry"/>
                </mxCell>
                <mxCell id="khRV6xAZj5hhKfZr4hbl-96" value="" style="edgeStyle=none;rounded=0;orthogonalLoop=1;jettySize=auto;html=1;endArrow=none;endFill=0;exitX=1.01;exitY=0.1;exitDx=0;exitDy=0;exitPerimeter=0;" edge="1" parent="khRV6xAZj5hhKfZr4hbl-1" source="khRV6xAZj5hhKfZr4hbl-97" target="khRV6xAZj5hhKfZr4hbl-103">
                    <mxGeometry relative="1" as="geometry"/>
                </mxCell>
                <mxCell id="khRV6xAZj5hhKfZr4hbl-97" value="Input Pilihan" style="swimlane;fontStyle=0;childLayout=stackLayout;horizontal=1;startSize=26;horizontalStack=0;resizeParent=1;resizeParentMax=0;resizeLast=0;collapsible=1;marginBottom=0;" vertex="1" parent="khRV6xAZj5hhKfZr4hbl-1">
                    <mxGeometry x="960" y="890" width="140" height="104" as="geometry"/>
                </mxCell>
                <mxCell id="khRV6xAZj5hhKfZr4hbl-98" value="1. AAA" style="text;strokeColor=none;fillColor=none;align=left;verticalAlign=top;spacingLeft=4;spacingRight=4;overflow=hidden;rotatable=0;points=[[0,0.5],[1,0.5]];portConstraint=eastwest;" vertex="1" parent="khRV6xAZj5hhKfZr4hbl-97">
                    <mxGeometry y="26" width="140" height="26" as="geometry"/>
                </mxCell>
                <mxCell id="khRV6xAZj5hhKfZr4hbl-99" value="2. BBB" style="text;strokeColor=none;fillColor=none;align=left;verticalAlign=top;spacingLeft=4;spacingRight=4;overflow=hidden;rotatable=0;points=[[0,0.5],[1,0.5]];portConstraint=eastwest;" vertex="1" parent="khRV6xAZj5hhKfZr4hbl-97">
                    <mxGeometry y="52" width="140" height="26" as="geometry"/>
                </mxCell>
                <mxCell id="khRV6xAZj5hhKfZr4hbl-100" value="3. CCC" style="text;strokeColor=none;fillColor=none;align=left;verticalAlign=top;spacingLeft=4;spacingRight=4;overflow=hidden;rotatable=0;points=[[0,0.5],[1,0.5]];portConstraint=eastwest;" vertex="1" parent="khRV6xAZj5hhKfZr4hbl-97">
                    <mxGeometry y="78" width="140" height="26" as="geometry"/>
                </mxCell>
                <mxCell id="khRV6xAZj5hhKfZr4hbl-101" value="" style="edgeStyle=none;rounded=0;orthogonalLoop=1;jettySize=auto;html=1;endArrow=none;endFill=0;" edge="1" parent="khRV6xAZj5hhKfZr4hbl-1" source="khRV6xAZj5hhKfZr4hbl-103" target="khRV6xAZj5hhKfZr4hbl-105">
                    <mxGeometry relative="1" as="geometry"/>
                </mxCell>
                <mxCell id="khRV6xAZj5hhKfZr4hbl-102" value="To Login Menu" style="edgeStyle=none;rounded=0;orthogonalLoop=1;jettySize=auto;html=1;endArrow=none;endFill=0;" edge="1" parent="khRV6xAZj5hhKfZr4hbl-1" source="khRV6xAZj5hhKfZr4hbl-103" target="khRV6xAZj5hhKfZr4hbl-107">
                    <mxGeometry relative="1" as="geometry"/>
                </mxCell>
                <mxCell id="khRV6xAZj5hhKfZr4hbl-103" value="Check&lt;br&gt;Login&lt;br&gt;Status" style="rhombus;whiteSpace=wrap;html=1;fontStyle=0;startSize=26;" vertex="1" parent="khRV6xAZj5hhKfZr4hbl-1">
                    <mxGeometry x="1170" y="860" width="80" height="80" as="geometry"/>
                </mxCell>
                <mxCell id="khRV6xAZj5hhKfZr4hbl-104" value="Back to Main Menu" style="edgeStyle=none;rounded=0;orthogonalLoop=1;jettySize=auto;html=1;endArrow=none;endFill=0;" edge="1" parent="khRV6xAZj5hhKfZr4hbl-1" source="khRV6xAZj5hhKfZr4hbl-105" target="khRV6xAZj5hhKfZr4hbl-106">
                    <mxGeometry relative="1" as="geometry"/>
                </mxCell>
                <mxCell id="khRV6xAZj5hhKfZr4hbl-105" value="Konfirmasi&lt;br&gt;Pembayaran" style="whiteSpace=wrap;html=1;fontStyle=0;startSize=26;" vertex="1" parent="khRV6xAZj5hhKfZr4hbl-1">
                    <mxGeometry x="1320" y="870" width="120" height="60" as="geometry"/>
                </mxCell>
                <mxCell id="khRV6xAZj5hhKfZr4hbl-106" value="" style="shape=waypoint;size=6;pointerEvents=1;points=[];fillColor=#2a2a2a;resizable=0;rotatable=0;perimeter=centerPerimeter;snapToPoint=1;fontStyle=0;startSize=26;" vertex="1" parent="khRV6xAZj5hhKfZr4hbl-1">
                    <mxGeometry x="1550" y="880" width="40" height="40" as="geometry"/>
                </mxCell>
                <mxCell id="khRV6xAZj5hhKfZr4hbl-107" value="" style="shape=waypoint;size=6;pointerEvents=1;points=[];fillColor=#2a2a2a;resizable=0;rotatable=0;perimeter=centerPerimeter;snapToPoint=1;fontStyle=0;startSize=26;" vertex="1" parent="khRV6xAZj5hhKfZr4hbl-1">
                    <mxGeometry x="1190" y="720" width="40" height="40" as="geometry"/>
                </mxCell>
                <mxCell id="khRV6xAZj5hhKfZr4hbl-108" value="True" style="text;html=1;strokeColor=none;fillColor=none;align=center;verticalAlign=middle;whiteSpace=wrap;rounded=0;" vertex="1" parent="khRV6xAZj5hhKfZr4hbl-1">
                    <mxGeometry x="1260" y="880" width="40" height="20" as="geometry"/>
                </mxCell>
                <mxCell id="khRV6xAZj5hhKfZr4hbl-109" value="False" style="text;html=1;strokeColor=none;fillColor=none;align=center;verticalAlign=middle;whiteSpace=wrap;rounded=0;" vertex="1" parent="khRV6xAZj5hhKfZr4hbl-1">
                    <mxGeometry x="1210" y="829" width="40" height="20" as="geometry"/>
                </mxCell>
                <mxCell id="khRV6xAZj5hhKfZr4hbl-110" style="edgeStyle=orthogonalEdgeStyle;rounded=0;orthogonalLoop=1;jettySize=auto;html=1;endArrow=none;endFill=0;" edge="1" parent="khRV6xAZj5hhKfZr4hbl-1" source="khRV6xAZj5hhKfZr4hbl-5" target="khRV6xAZj5hhKfZr4hbl-78">
                    <mxGeometry relative="1" as="geometry">
                        <Array as="points">
                            <mxPoint x="280" y="241"/>
                            <mxPoint x="280" y="945"/>
                        </Array>
                    </mxGeometry>
                </mxCell>
                <mxCell id="khRV6xAZj5hhKfZr4hbl-111" style="edgeStyle=none;rounded=0;orthogonalLoop=1;jettySize=auto;html=1;entryX=0;entryY=0.5;entryDx=0;entryDy=0;endArrow=none;endFill=0;" edge="1" parent="khRV6xAZj5hhKfZr4hbl-1" target="khRV6xAZj5hhKfZr4hbl-117">
                    <mxGeometry relative="1" as="geometry">
                        <mxPoint x="455.9999999999998" y="1331" as="sourcePoint"/>
                    </mxGeometry>
                </mxCell>
                <mxCell id="khRV6xAZj5hhKfZr4hbl-112" value="Input" style="swimlane;fontStyle=0;childLayout=stackLayout;horizontal=1;startSize=26;horizontalStack=0;resizeParent=1;resizeParentMax=0;resizeLast=0;collapsible=1;marginBottom=0;" vertex="1" parent="khRV6xAZj5hhKfZr4hbl-1">
                    <mxGeometry x="320" y="1310" width="140" height="78" as="geometry"/>
                </mxCell>
                <mxCell id="khRV6xAZj5hhKfZr4hbl-113" value="Kota" style="text;strokeColor=none;fillColor=none;align=left;verticalAlign=top;spacingLeft=4;spacingRight=4;overflow=hidden;rotatable=0;points=[[0,0.5],[1,0.5]];portConstraint=eastwest;" vertex="1" parent="khRV6xAZj5hhKfZr4hbl-112">
                    <mxGeometry y="26" width="140" height="26" as="geometry"/>
                </mxCell>
                <mxCell id="khRV6xAZj5hhKfZr4hbl-114" value="Menu / Nama Restoran" style="text;strokeColor=none;fillColor=none;align=left;verticalAlign=top;spacingLeft=4;spacingRight=4;overflow=hidden;rotatable=0;points=[[0,0.5],[1,0.5]];portConstraint=eastwest;" vertex="1" parent="khRV6xAZj5hhKfZr4hbl-112">
                    <mxGeometry y="52" width="140" height="26" as="geometry"/>
                </mxCell>
                <mxCell id="khRV6xAZj5hhKfZr4hbl-115" value="" style="edgeStyle=none;rounded=0;orthogonalLoop=1;jettySize=auto;html=1;endArrow=none;endFill=0;entryX=0.004;entryY=0.098;entryDx=0;entryDy=0;entryPerimeter=0;" edge="1" parent="khRV6xAZj5hhKfZr4hbl-1" source="khRV6xAZj5hhKfZr4hbl-117" target="khRV6xAZj5hhKfZr4hbl-123">
                    <mxGeometry relative="1" as="geometry">
                        <mxPoint x="739" y="1330" as="targetPoint"/>
                    </mxGeometry>
                </mxCell>
                <mxCell id="khRV6xAZj5hhKfZr4hbl-116" value="" style="edgeStyle=none;rounded=0;orthogonalLoop=1;jettySize=auto;html=1;endArrow=none;endFill=0;" edge="1" parent="khRV6xAZj5hhKfZr4hbl-1" source="khRV6xAZj5hhKfZr4hbl-117" target="khRV6xAZj5hhKfZr4hbl-119">
                    <mxGeometry relative="1" as="geometry"/>
                </mxCell>
                <mxCell id="khRV6xAZj5hhKfZr4hbl-117" value="Search" style="rhombus;whiteSpace=wrap;html=1;fontStyle=0;startSize=26;" vertex="1" parent="khRV6xAZj5hhKfZr4hbl-1">
                    <mxGeometry x="580" y="1291" width="80" height="80" as="geometry"/>
                </mxCell>
                <mxCell id="khRV6xAZj5hhKfZr4hbl-118" value="To Main Menu" style="edgeStyle=none;rounded=0;orthogonalLoop=1;jettySize=auto;html=1;endArrow=none;endFill=0;" edge="1" parent="khRV6xAZj5hhKfZr4hbl-1" source="khRV6xAZj5hhKfZr4hbl-119" target="khRV6xAZj5hhKfZr4hbl-136">
                    <mxGeometry relative="1" as="geometry"/>
                </mxCell>
                <mxCell id="khRV6xAZj5hhKfZr4hbl-119" value="&lt;b&gt;Note&lt;/b&gt;:&lt;br&gt;Tidak tersedia" style="whiteSpace=wrap;html=1;fontStyle=0;startSize=26;" vertex="1" parent="khRV6xAZj5hhKfZr4hbl-1">
                    <mxGeometry x="560" y="1150" width="120" height="60" as="geometry"/>
                </mxCell>
                <mxCell id="khRV6xAZj5hhKfZr4hbl-120" value="False" style="text;html=1;strokeColor=none;fillColor=none;align=center;verticalAlign=middle;whiteSpace=wrap;rounded=0;" vertex="1" parent="khRV6xAZj5hhKfZr4hbl-1">
                    <mxGeometry x="620" y="1250" width="40" height="20" as="geometry"/>
                </mxCell>
                <mxCell id="khRV6xAZj5hhKfZr4hbl-121" value="True" style="text;html=1;strokeColor=none;fillColor=none;align=center;verticalAlign=middle;whiteSpace=wrap;rounded=0;" vertex="1" parent="khRV6xAZj5hhKfZr4hbl-1">
                    <mxGeometry x="670" y="1301" width="40" height="20" as="geometry"/>
                </mxCell>
                <mxCell id="khRV6xAZj5hhKfZr4hbl-122" value="" style="edgeStyle=none;rounded=0;orthogonalLoop=1;jettySize=auto;html=1;endArrow=none;endFill=0;exitX=1.01;exitY=0.1;exitDx=0;exitDy=0;exitPerimeter=0;" edge="1" parent="khRV6xAZj5hhKfZr4hbl-1" source="khRV6xAZj5hhKfZr4hbl-123" target="khRV6xAZj5hhKfZr4hbl-129">
                    <mxGeometry relative="1" as="geometry"/>
                </mxCell>
                <mxCell id="khRV6xAZj5hhKfZr4hbl-123" value="Input Pilihan" style="swimlane;fontStyle=0;childLayout=stackLayout;horizontal=1;startSize=26;horizontalStack=0;resizeParent=1;resizeParentMax=0;resizeLast=0;collapsible=1;marginBottom=0;" vertex="1" parent="khRV6xAZj5hhKfZr4hbl-1">
                    <mxGeometry x="740" y="1321" width="140" height="104" as="geometry"/>
                </mxCell>
                <mxCell id="khRV6xAZj5hhKfZr4hbl-124" value="1. AAA" style="text;strokeColor=none;fillColor=none;align=left;verticalAlign=top;spacingLeft=4;spacingRight=4;overflow=hidden;rotatable=0;points=[[0,0.5],[1,0.5]];portConstraint=eastwest;" vertex="1" parent="khRV6xAZj5hhKfZr4hbl-123">
                    <mxGeometry y="26" width="140" height="26" as="geometry"/>
                </mxCell>
                <mxCell id="khRV6xAZj5hhKfZr4hbl-125" value="2. BBB" style="text;strokeColor=none;fillColor=none;align=left;verticalAlign=top;spacingLeft=4;spacingRight=4;overflow=hidden;rotatable=0;points=[[0,0.5],[1,0.5]];portConstraint=eastwest;" vertex="1" parent="khRV6xAZj5hhKfZr4hbl-123">
                    <mxGeometry y="52" width="140" height="26" as="geometry"/>
                </mxCell>
                <mxCell id="khRV6xAZj5hhKfZr4hbl-126" value="3. CCC" style="text;strokeColor=none;fillColor=none;align=left;verticalAlign=top;spacingLeft=4;spacingRight=4;overflow=hidden;rotatable=0;points=[[0,0.5],[1,0.5]];portConstraint=eastwest;" vertex="1" parent="khRV6xAZj5hhKfZr4hbl-123">
                    <mxGeometry y="78" width="140" height="26" as="geometry"/>
                </mxCell>
                <mxCell id="khRV6xAZj5hhKfZr4hbl-127" value="" style="edgeStyle=none;rounded=0;orthogonalLoop=1;jettySize=auto;html=1;endArrow=none;endFill=0;" edge="1" parent="khRV6xAZj5hhKfZr4hbl-1" source="khRV6xAZj5hhKfZr4hbl-129" target="khRV6xAZj5hhKfZr4hbl-131">
                    <mxGeometry relative="1" as="geometry"/>
                </mxCell>
                <mxCell id="khRV6xAZj5hhKfZr4hbl-128" value="To Login Menu" style="edgeStyle=none;rounded=0;orthogonalLoop=1;jettySize=auto;html=1;endArrow=none;endFill=0;" edge="1" parent="khRV6xAZj5hhKfZr4hbl-1" source="khRV6xAZj5hhKfZr4hbl-129" target="khRV6xAZj5hhKfZr4hbl-133">
                    <mxGeometry relative="1" as="geometry"/>
                </mxCell>
                <mxCell id="khRV6xAZj5hhKfZr4hbl-129" value="Check&lt;br&gt;Login&lt;br&gt;Status" style="rhombus;whiteSpace=wrap;html=1;fontStyle=0;startSize=26;" vertex="1" parent="khRV6xAZj5hhKfZr4hbl-1">
                    <mxGeometry x="950" y="1291" width="80" height="80" as="geometry"/>
                </mxCell>
                <mxCell id="khRV6xAZj5hhKfZr4hbl-130" value="Back to Main Menu" style="edgeStyle=none;rounded=0;orthogonalLoop=1;jettySize=auto;html=1;endArrow=none;endFill=0;" edge="1" parent="khRV6xAZj5hhKfZr4hbl-1" source="khRV6xAZj5hhKfZr4hbl-131" target="khRV6xAZj5hhKfZr4hbl-132">
                    <mxGeometry relative="1" as="geometry"/>
                </mxCell>
                <mxCell id="khRV6xAZj5hhKfZr4hbl-131" value="Konfirmasi&lt;br&gt;Pembayaran" style="whiteSpace=wrap;html=1;fontStyle=0;startSize=26;" vertex="1" parent="khRV6xAZj5hhKfZr4hbl-1">
                    <mxGeometry x="1100" y="1301" width="120" height="60" as="geometry"/>
                </mxCell>
                <mxCell id="khRV6xAZj5hhKfZr4hbl-132" value="" style="shape=waypoint;size=6;pointerEvents=1;points=[];fillColor=#2a2a2a;resizable=0;rotatable=0;perimeter=centerPerimeter;snapToPoint=1;fontStyle=0;startSize=26;" vertex="1" parent="khRV6xAZj5hhKfZr4hbl-1">
                    <mxGeometry x="1330" y="1311" width="40" height="40" as="geometry"/>
                </mxCell>
                <mxCell id="khRV6xAZj5hhKfZr4hbl-133" value="" style="shape=waypoint;size=6;pointerEvents=1;points=[];fillColor=#2a2a2a;resizable=0;rotatable=0;perimeter=centerPerimeter;snapToPoint=1;fontStyle=0;startSize=26;" vertex="1" parent="khRV6xAZj5hhKfZr4hbl-1">
                    <mxGeometry x="970" y="1151" width="40" height="40" as="geometry"/>
                </mxCell>
                <mxCell id="khRV6xAZj5hhKfZr4hbl-134" value="True" style="text;html=1;strokeColor=none;fillColor=none;align=center;verticalAlign=middle;whiteSpace=wrap;rounded=0;" vertex="1" parent="khRV6xAZj5hhKfZr4hbl-1">
                    <mxGeometry x="1040" y="1311" width="40" height="20" as="geometry"/>
                </mxCell>
                <mxCell id="khRV6xAZj5hhKfZr4hbl-135" value="False" style="text;html=1;strokeColor=none;fillColor=none;align=center;verticalAlign=middle;whiteSpace=wrap;rounded=0;" vertex="1" parent="khRV6xAZj5hhKfZr4hbl-1">
                    <mxGeometry x="990" y="1260" width="40" height="20" as="geometry"/>
                </mxCell>
                <mxCell id="khRV6xAZj5hhKfZr4hbl-136" value="" style="shape=waypoint;size=6;pointerEvents=1;points=[];fillColor=#2a2a2a;resizable=0;rotatable=0;perimeter=centerPerimeter;snapToPoint=1;fontStyle=0;startSize=26;" vertex="1" parent="khRV6xAZj5hhKfZr4hbl-1">
                    <mxGeometry x="400" y="1160" width="40" height="40" as="geometry"/>
                </mxCell>
                <mxCell id="khRV6xAZj5hhKfZr4hbl-137" style="edgeStyle=orthogonalEdgeStyle;rounded=0;orthogonalLoop=1;jettySize=auto;html=1;entryX=0;entryY=0;entryDx=0;entryDy=0;endArrow=none;endFill=0;" edge="1" parent="khRV6xAZj5hhKfZr4hbl-1" source="khRV6xAZj5hhKfZr4hbl-6" target="khRV6xAZj5hhKfZr4hbl-112">
                    <mxGeometry relative="1" as="geometry">
                        <Array as="points">
                            <mxPoint x="270" y="267"/>
                            <mxPoint x="270" y="1320"/>
                            <mxPoint x="320" y="1320"/>
                        </Array>
                    </mxGeometry>
                </mxCell>
                <mxCell id="khRV6xAZj5hhKfZr4hbl-138" value="Input" style="swimlane;fontStyle=0;childLayout=stackLayout;horizontal=1;startSize=26;horizontalStack=0;resizeParent=1;resizeParentMax=0;resizeLast=0;collapsible=1;marginBottom=0;" vertex="1" parent="khRV6xAZj5hhKfZr4hbl-1">
                    <mxGeometry x="320" y="1510" width="140" height="78" as="geometry"/>
                </mxCell>
                <mxCell id="khRV6xAZj5hhKfZr4hbl-139" value="Login" style="text;strokeColor=none;fillColor=none;align=left;verticalAlign=top;spacingLeft=4;spacingRight=4;overflow=hidden;rotatable=0;points=[[0,0.5],[1,0.5]];portConstraint=eastwest;" vertex="1" parent="khRV6xAZj5hhKfZr4hbl-138">
                    <mxGeometry y="26" width="140" height="26" as="geometry"/>
                </mxCell>
                <mxCell id="khRV6xAZj5hhKfZr4hbl-140" value="Sign-Up" style="text;strokeColor=none;fillColor=none;align=left;verticalAlign=top;spacingLeft=4;spacingRight=4;overflow=hidden;rotatable=0;points=[[0,0.5],[1,0.5]];portConstraint=eastwest;" vertex="1" parent="khRV6xAZj5hhKfZr4hbl-138">
                    <mxGeometry y="52" width="140" height="26" as="geometry"/>
                </mxCell>
                <mxCell id="khRV6xAZj5hhKfZr4hbl-141" style="edgeStyle=orthogonalEdgeStyle;rounded=0;orthogonalLoop=1;jettySize=auto;html=1;endArrow=none;endFill=0;" edge="1" parent="khRV6xAZj5hhKfZr4hbl-1" source="khRV6xAZj5hhKfZr4hbl-7" target="khRV6xAZj5hhKfZr4hbl-138">
                    <mxGeometry relative="1" as="geometry">
                        <Array as="points">
                            <mxPoint x="260" y="293"/>
                            <mxPoint x="260" y="1549"/>
                        </Array>
                    </mxGeometry>
                </mxCell>
                <mxCell id="khRV6xAZj5hhKfZr4hbl-142" value="To Main Menu" style="edgeStyle=orthogonalEdgeStyle;rounded=0;orthogonalLoop=1;jettySize=auto;html=1;endArrow=none;endFill=0;" edge="1" parent="khRV6xAZj5hhKfZr4hbl-1" source="khRV6xAZj5hhKfZr4hbl-143" target="khRV6xAZj5hhKfZr4hbl-148">
                    <mxGeometry relative="1" as="geometry"/>
                </mxCell>
                <mxCell id="khRV6xAZj5hhKfZr4hbl-143" value="Input Login" style="rounded=0;whiteSpace=wrap;html=1;" vertex="1" parent="khRV6xAZj5hhKfZr4hbl-1">
                    <mxGeometry x="560" y="1510" width="120" height="60" as="geometry"/>
                </mxCell>
                <mxCell id="khRV6xAZj5hhKfZr4hbl-144" value="To Main Menu" style="edgeStyle=orthogonalEdgeStyle;rounded=0;orthogonalLoop=1;jettySize=auto;html=1;endArrow=none;endFill=0;" edge="1" parent="khRV6xAZj5hhKfZr4hbl-1" source="khRV6xAZj5hhKfZr4hbl-145" target="khRV6xAZj5hhKfZr4hbl-149">
                    <mxGeometry relative="1" as="geometry"/>
                </mxCell>
                <mxCell id="khRV6xAZj5hhKfZr4hbl-145" value="Input Sign-Up" style="rounded=0;whiteSpace=wrap;html=1;" vertex="1" parent="khRV6xAZj5hhKfZr4hbl-1">
                    <mxGeometry x="560" y="1630" width="120" height="60" as="geometry"/>
                </mxCell>
                <mxCell id="khRV6xAZj5hhKfZr4hbl-146" style="edgeStyle=orthogonalEdgeStyle;rounded=0;orthogonalLoop=1;jettySize=auto;html=1;endArrow=none;endFill=0;" edge="1" parent="khRV6xAZj5hhKfZr4hbl-1" source="khRV6xAZj5hhKfZr4hbl-139" target="khRV6xAZj5hhKfZr4hbl-143">
                    <mxGeometry relative="1" as="geometry">
                        <Array as="points">
                            <mxPoint x="480" y="1549"/>
                            <mxPoint x="480" y="1540"/>
                        </Array>
                    </mxGeometry>
                </mxCell>
                <mxCell id="khRV6xAZj5hhKfZr4hbl-147" style="edgeStyle=orthogonalEdgeStyle;rounded=0;orthogonalLoop=1;jettySize=auto;html=1;endArrow=none;endFill=0;" edge="1" parent="khRV6xAZj5hhKfZr4hbl-1" source="khRV6xAZj5hhKfZr4hbl-140" target="khRV6xAZj5hhKfZr4hbl-145">
                    <mxGeometry relative="1" as="geometry">
                        <Array as="points">
                            <mxPoint x="480" y="1575"/>
                            <mxPoint x="480" y="1650"/>
                        </Array>
                    </mxGeometry>
                </mxCell>
                <mxCell id="khRV6xAZj5hhKfZr4hbl-148" value="" style="shape=waypoint;size=6;pointerEvents=1;points=[];fillColor=#2a2a2a;resizable=0;rotatable=0;perimeter=centerPerimeter;snapToPoint=1;rounded=0;" vertex="1" parent="khRV6xAZj5hhKfZr4hbl-1">
                    <mxGeometry x="800" y="1520" width="40" height="40" as="geometry"/>
                </mxCell>
                <mxCell id="khRV6xAZj5hhKfZr4hbl-149" value="" style="shape=waypoint;size=6;pointerEvents=1;points=[];fillColor=#2a2a2a;resizable=0;rotatable=0;perimeter=centerPerimeter;snapToPoint=1;rounded=0;" vertex="1" parent="khRV6xAZj5hhKfZr4hbl-1">
                    <mxGeometry x="800" y="1640" width="40" height="40" as="geometry"/>
                </mxCell>
                <mxCell id="khRV6xAZj5hhKfZr4hbl-150" value="To Main Menu" style="edgeStyle=orthogonalEdgeStyle;rounded=0;orthogonalLoop=1;jettySize=auto;html=1;endArrow=none;endFill=0;" edge="1" parent="khRV6xAZj5hhKfZr4hbl-1" source="khRV6xAZj5hhKfZr4hbl-151" target="khRV6xAZj5hhKfZr4hbl-153">
                    <mxGeometry relative="1" as="geometry"/>
                </mxCell>
                <mxCell id="khRV6xAZj5hhKfZr4hbl-151" value="Input Login" style="rounded=0;whiteSpace=wrap;html=1;" vertex="1" parent="khRV6xAZj5hhKfZr4hbl-1">
                    <mxGeometry x="320" y="1750" width="120" height="60" as="geometry"/>
                </mxCell>
                <mxCell id="khRV6xAZj5hhKfZr4hbl-152" style="edgeStyle=orthogonalEdgeStyle;rounded=0;orthogonalLoop=1;jettySize=auto;html=1;endArrow=none;endFill=0;" edge="1" parent="khRV6xAZj5hhKfZr4hbl-1" source="khRV6xAZj5hhKfZr4hbl-8" target="khRV6xAZj5hhKfZr4hbl-151">
                    <mxGeometry relative="1" as="geometry">
                        <Array as="points">
                            <mxPoint x="250" y="319"/>
                            <mxPoint x="250" y="1780"/>
                        </Array>
                    </mxGeometry>
                </mxCell>
                <mxCell id="khRV6xAZj5hhKfZr4hbl-153" value="" style="shape=waypoint;size=6;pointerEvents=1;points=[];fillColor=#2a2a2a;resizable=0;rotatable=0;perimeter=centerPerimeter;snapToPoint=1;rounded=0;" vertex="1" parent="khRV6xAZj5hhKfZr4hbl-1">
                    <mxGeometry x="560" y="1760" width="40" height="40" as="geometry"/>
                </mxCell>
            </root>
        </mxGraphModel>
    </diagram>
</mxfile>